GRFwalking.mot
version=1
nRows=13
nColumns=37
inDegrees=yes
endheader
time	ground_force_calcn_l_vx	ground_force_calcn_l_vy	ground_force_calcn_l_vz	ground_force_calcn_l_px	ground_force_calcn_l_py	ground_force_calcn_l_pz	ground_torque_calcn_l_vx	ground_torque_calcn_l_vy	ground_torque_calcn_l_vz	ground_force_calcn_r_vx	ground_force_calcn_r_vy	ground_force_calcn_r_vz	ground_force_calcn_r_px	ground_force_calcn_r_py	ground_force_calcn_r_pz	ground_torque_calcn_r_vx	ground_torque_calcn_r_vy	ground_torque_calcn_r_vz	ground_force_hand_l_vx	ground_force_hand_l_vy	ground_force_hand_l_vz	ground_force_hand_l_px	ground_force_hand_l_py	ground_force_hand_l_pz	ground_torque_hand_l_vx	ground_torque_hand_l_vy	ground_torque_hand_l_vz	ground_force_hand_r_vx	ground_force_hand_r_vy	ground_force_hand_r_vz	ground_force_hand_r_px	ground_force_hand_r_py	ground_force_hand_r_pz	ground_torque_hand_r_vx	ground_torque_hand_r_vy	ground_torque_hand_r_vz
        0     -48.73356      390.6085      25.21385     0.9513605 -5.811324e-17    -0.3053083             0     -1.214838             0      33.67408      386.9479     -18.24963     0.6314207 -3.903128e-17    -0.1164495             0     -1.207603             0             0             0             0     0.7551583     0.7836348    -0.4233071             0             0             0             0             0             0     0.8239915     0.7888663    0.01560768             0             0             0
0.0166567     -94.31826       633.767      49.99077     0.9528952 -5.854692e-17    -0.3011672             0     -2.071934             0     -27.29861      223.3261     -35.53015     0.6358808 -3.903128e-17    -0.1170863             0      -2.09231             0             0             0             0     0.7707959     0.7832399    -0.4280529             0             0             0             0             0             0     0.8365223     0.7907712    0.01309951             0             0             0
0.0333233     -125.2945      802.9254      63.19055     0.9540536 -5.854692e-17    -0.2984131             0     -2.642108             0     -71.75022      107.0893     -50.23794     0.6412464 -3.989864e-17    -0.1174264             0     -2.674488             0             0             0             0     0.7859602     0.7826637    -0.4323515             0             0             0             0             0             0     0.8481456     0.7927675    0.01043915             0             0             0
0.0499899     -133.9838      860.1778      59.74241      0.954801 -5.811324e-17    -0.2975892             0     -2.782962             0     -90.94577      59.31424      -59.7997     0.6488576 -3.989864e-17     -0.117374             0     -2.799045             0             0             0             0     0.8003708     0.7820019    -0.4360408             0             0             0             0             0             0      0.858705     0.7950712    0.00778751             0             0             0
0.0666565     -122.1486      816.8002      43.08821     0.9544236 -5.811324e-17    -0.2977903             0     -2.541261             0     -86.75551      68.89853     -62.33501     0.6633361 -3.989864e-17    -0.1168621             0       -2.5137             0             0             0             0     0.8139621     0.7816365    -0.4388825             0             0             0             0             0             0     0.8682137     0.7979234    0.00535107             0             0             0
0.0833231     -98.29725      718.2749      21.86947     0.9534043 -5.811324e-17    -0.2981029             0     -2.098679             0     -68.37218      107.8108     -57.67419     0.6842929 -4.163336e-17    -0.1167451             0     -2.011094             0             0             0             0     0.8270005     0.7819198    -0.4407808             0             0             0             0             0             0     0.8768393     0.8014322    0.00323202             0             0             0
0.0999897     -72.44133      615.2608      4.361004     0.9523922 -5.811324e-17    -0.2981609             0      -1.65442             0      -46.2009      151.2031     -47.79271     0.7010485 -4.336809e-17    -0.1192522             0     -1.508395             0             0             0             0     0.8399829     0.7828415    -0.4419743             0             0             0             0             0             0     0.8849079     0.8054027    0.00143176             0             0             0
0.1166563     -51.78782      540.1866     -5.339885     0.9515622  -5.89806e-17    -0.2980817             0     -1.322718             0     -27.06273      187.3946     -36.08487     0.7130986 -4.510281e-17    -0.1215306             0     -1.145621             0             0             0             0     0.8533727     0.7839525    -0.4429116             0             0             0             0             0             0     0.8927585     0.8093021    -9.873e-05             0             0             0
0.1333229     -39.16741      500.4819     -7.597221     0.9524422  -5.89806e-17    -0.2983745             0     -1.104425             0     -12.80729      215.6453     -25.89935     0.7186589 -4.510281e-17    -0.1232298             0    -0.9535371             0             0             0             0     0.8674161     0.7845888    -0.4439822             0             0             0             0             0             0     0.9005933     0.8124435   -0.00139873             0             0             0
0.1499895      -33.8805      486.4782      -5.10585     0.9569461  -5.89806e-17    -0.2995802             0    -0.9391129             0      -1.85387      238.8453     -19.25982      0.719967 -4.510281e-17    -0.1234716             0    -0.8866628             0             0             0             0     0.8821473     0.7842374    -0.4453394             0             0             0             0             0             0     0.9084848     0.8143176   -0.00243389             0             0             0
0.1666561     -33.55206      484.3728    -0.5977486     0.9675715  -5.89806e-17    -0.3023238             0    -0.7937248             0      8.206912      258.1694     -16.34821     0.7195294 -4.336809e-17    -0.1232551             0     -0.881239             0             0             0             0     0.8975102     0.7828162    -0.4469011             0             0             0             0             0             0     0.9164915     0.8148764   -0.00308599             0             0             0
0.1833227      -35.7068       485.296      4.223542     0.9811323 -6.071532e-17    -0.3065515             0    -0.7214234             0      18.72784      272.0801     -15.77596     0.7179057 -4.336809e-17    -0.1219786             0    -0.8982377             0             0             0             0     0.9134518     0.7807317    -0.4484887             0             0             0             0             0             0     0.9247194     0.8145978   -0.00322927             0             0             0
0.1999893     -38.48832      487.3228      8.592095     0.9926944 -6.071532e-17    -0.3094434             0    -0.8371788             0      29.56292      278.1865     -15.40878     0.7170639 -4.336809e-17    -0.1205744             0    -0.9330738             0             0             0             0     0.9299134     0.7787106    -0.4500003             0             0             0             0             0             0     0.9332714     0.8142967   -0.00284718             0             0             0
